<?xml version="1.0" encoding="UTF-8" standalone="no"?>
<!-- Generator: Adobe Illustrator 19.0.0, SVG Export Plug-In . SVG Version: 6.00 Build 0)  -->

<svg
   version="1.1"
   id="Livello_1"
   x="0px"
   y="0px"
   viewBox="0 0 245.7045 205.7"
   xml:space="preserve"
   sodipodi:docname="Icone_spokes_300x300_Spoke_9.svg"
   width="245.7045"
   height="205.7"
   inkscape:version="1.2.2 (b0a8486, 2022-12-01)"
   xmlns:inkscape="http://www.inkscape.org/namespaces/inkscape"
   xmlns:sodipodi="http://sodipodi.sourceforge.net/DTD/sodipodi-0.dtd"
   xmlns:xlink="http://www.w3.org/1999/xlink"
   xmlns="http://www.w3.org/2000/svg"
   xmlns:svg="http://www.w3.org/2000/svg"><defs
   id="defs408" /><sodipodi:namedview
   id="namedview406"
   pagecolor="#ffffff"
   bordercolor="#000000"
   borderopacity="0.25"
   inkscape:showpageshadow="2"
   inkscape:pageopacity="0.0"
   inkscape:pagecheckerboard="0"
   inkscape:deskcolor="#d1d1d1"
   showgrid="false"
   inkscape:zoom="0.53389693"
   inkscape:cx="567.52527"
   inkscape:cy="-138.60353"
   inkscape:window-width="1920"
   inkscape:window-height="956"
   inkscape:window-x="1280"
   inkscape:window-y="25"
   inkscape:window-maximized="1"
   inkscape:current-layer="Livello_1" />
<style
   type="text/css"
   id="style2">
	.st0{fill:none;stroke:#CED041;stroke-miterlimit:10;}
	.st1{opacity:0.2;enable-background:new    ;}
	.st2{clip-path:url(#XMLID_152_);}
	.st3{clip-path:url(#XMLID_154_);fill:#CED041;}
	.st4{fill:#FFFFFF;}
	.st5{fill:none;stroke:#4B4E4F;stroke-width:0.809;stroke-miterlimit:10;}
	.st6{fill:#4B4E4F;}
	.st7{clip-path:url(#XMLID_155_);}
	.st8{clip-path:url(#XMLID_156_);fill:#32BDC9;}
	.st9{fill:none;stroke:#396FB5;stroke-miterlimit:10;}
	.st10{clip-path:url(#XMLID_157_);}
	.st11{clip-path:url(#XMLID_159_);fill:#3A70B5;}
	.st12{fill:none;stroke:#3A70B5;stroke-miterlimit:10;}
	.st13{fill:none;stroke:#328065;stroke-miterlimit:10;}
	.st14{clip-path:url(#XMLID_160_);}
	.st15{clip-path:url(#XMLID_161_);fill:#318166;}
	.st16{fill:none;stroke:#318166;stroke-miterlimit:10;}
	.st17{fill:none;stroke:#4ABEB4;stroke-miterlimit:10;}
	.st18{clip-path:url(#XMLID_163_);}
	.st19{clip-path:url(#XMLID_164_);fill:#4ABEB5;}
	.st20{fill:none;stroke:#4ABEB5;stroke-miterlimit:10;}
	.st21{fill:none;stroke:#3B57A4;stroke-miterlimit:10;}
	.st22{clip-path:url(#XMLID_166_);}
	.st23{clip-path:url(#XMLID_167_);fill:#3B58A4;}
	.st24{fill:none;stroke:#3B58A4;stroke-miterlimit:10;}
	.st25{clip-path:url(#XMLID_168_);}
	.st26{clip-path:url(#XMLID_203_);fill:#318166;}
	.st27{fill:none;stroke:#2E9FCA;stroke-miterlimit:10;}
	.st28{clip-path:url(#XMLID_205_);}
	.st29{clip-path:url(#XMLID_206_);fill:#2E9FCA;}
	.st30{fill:none;stroke:#99C94B;stroke-miterlimit:10;}
	.st31{clip-path:url(#XMLID_207_);}
	.st32{clip-path:url(#XMLID_208_);fill:#99C94D;}
	.st33{fill:none;stroke:#99C94D;stroke-miterlimit:10;}
	.st34{fill:none;stroke:#31BDCB;stroke-miterlimit:10;}
	.st35{fill:none;stroke:#32BDC9;stroke-miterlimit:10;}
	.st36{fill:none;stroke:#00BADE;stroke-miterlimit:10;}
</style>




























































<g
   id="XMLID_204_"
   transform="translate(-28.8955,-37.499996)">
	<path
   id="XMLID_202_"
   class="st21"
   d="m 116.5,68.3 c 15.2,30.1 10.3,64.1 -10.3,83.2 -17.8,16.5 -41,15.9 -46.9,15.6" />
	<path
   id="XMLID_201_"
   class="st21"
   d="m 226.6,98.1 c -6.9,5.3 -19.8,13.5 -37.1,14.7 -28.4,2 -56.7,-15.5 -73.1,-44.5" />
	<path
   id="XMLID_200_"
   class="st21"
   d="m 95.2,229.1 c 2.5,-1.9 56.7,-43.8 48.5,-104.6 C 139.9,96.4 124.5,77 116.5,68.3" />
	<g
   id="XMLID_233_"
   class="st1">
		<g
   id="XMLID_234_">
			<defs
   id="defs197">
				<rect
   id="XMLID_197_"
   x="57"
   y="57.5"
   width="185.89999"
   height="185.89999" />
			</defs>
			<clipPath
   id="XMLID_166_">
				<use
   xlink:href="#XMLID_197_"
   style="overflow:visible"
   id="use199" />
			</clipPath>
			<g
   id="XMLID_236_"
   class="st22"
   clip-path="url(#XMLID_166_)">
				<defs
   id="defs203">
					<rect
   id="XMLID_198_"
   x="57.900002"
   y="58.599998"
   width="184.7"
   height="184.7" />
				</defs>
				<clipPath
   id="XMLID_167_">
					<use
   xlink:href="#XMLID_198_"
   style="overflow:visible"
   id="use205" />
				</clipPath>
				<path
   id="XMLID_199_"
   class="st23"
   d="m 242.6,150.9 c 0,51 -41.3,92.3 -92.3,92.3 -51,0 -92.3,-41.3 -92.3,-92.3 0,-51 41.3,-92.3 92.3,-92.3 51,0 92.3,41.3 92.3,92.3"
   clip-path="url(#XMLID_167_)" />
			</g>
		</g>
	</g>
	<path
   id="XMLID_196_"
   class="st4"
   d="m 130.2,65.6 c 0,9 -7.3,16.3 -16.3,16.3 -9,0 -16.3,-7.3 -16.3,-16.3 0,-9 7.3,-16.3 16.3,-16.3 9,0 16.3,7.3 16.3,16.3" />
	<circle
   id="XMLID_195_"
   class="st24"
   cx="113.9"
   cy="65.599998"
   r="16.299999" />
	<path
   id="XMLID_194_"
   class="st4"
   d="m 75.8,162.1 c 0,9 -7.3,16.3 -16.3,16.3 -9,0 -16.3,-7.3 -16.3,-16.3 0,-9 7.3,-16.3 16.3,-16.3 9,0 16.3,7.3 16.3,16.3" />
	<circle
   id="XMLID_193_"
   class="st24"
   cx="59.5"
   cy="162.10001"
   r="16.299999" />
	<path
   id="XMLID_192_"
   class="st4"
   d="m 238.8,94.8 c 0,9 -7.3,16.3 -16.3,16.3 -9,0 -16.3,-7.3 -16.3,-16.3 0,-9 7.3,-16.3 16.3,-16.3 9,0 16.3,7.3 16.3,16.3" />
	<circle
   id="XMLID_191_"
   class="st24"
   cx="222.5"
   cy="94.800003"
   r="16.299999" />
	<path
   id="XMLID_190_"
   class="st4"
   d="m 108.3,222.2 c 0,9 -7.3,16.3 -16.3,16.3 -9,0 -16.3,-7.3 -16.3,-16.3 0,-9 7.3,-16.3 16.3,-16.3 9,0 16.3,7.3 16.3,16.3" />
	<circle
   id="XMLID_189_"
   class="st24"
   cx="92.099998"
   cy="222.2"
   r="16.299999" />
	<path
   id="XMLID_188_"
   class="st4"
   d="m 141.5,66.2 c 0,15.5 -12.6,28.2 -28.2,28.2 C 97.7,94.4 85.1,81.8 85.1,66.2 85.1,50.6 97.8,38 113.3,38 c 15.6,0 28.2,12.6 28.2,28.2" />
	<circle
   id="XMLID_186_"
   class="st24"
   cx="113.3"
   cy="66.199997"
   r="28.200001" />
	<path
   id="XMLID_183_"
   class="st4"
   d="m 31.1,126.3 c -1.2,-1.1 -1.8,-2.5 -1.8,-4.2 0,-1.7 0.6,-3.1 1.8,-4.2 1.2,-1.2 2.6,-1.7 4.3,-1.7 1.7,0 3.1,0.6 4.3,1.7 1.2,1.2 1.8,2.6 1.8,4.2 0,1.6 -0.6,3 -1.8,4.2 -1.2,1.1 -2.7,1.7 -4.3,1.7 -1.7,-0.1 -3.1,-0.6 -4.3,-1.7" />
	<path
   id="XMLID_182_"
   class="st5"
   d="m 31.1,126.3 c -1.2,-1.1 -1.8,-2.5 -1.8,-4.2 0,-1.7 0.6,-3.1 1.8,-4.2 1.2,-1.2 2.6,-1.7 4.3,-1.7 1.7,0 3.1,0.6 4.3,1.7 1.2,1.2 1.8,2.6 1.8,4.2 0,1.6 -0.6,3 -1.8,4.2 -1.2,1.1 -2.7,1.7 -4.3,1.7 -1.7,-0.1 -3.1,-0.6 -4.3,-1.7 z" />
	<rect
   id="XMLID_181_"
   x="31"
   y="137.60001"
   class="st6"
   width="8.8999996"
   height="41.799999" />
	<path
   id="XMLID_216_"
   class="st6"
   d="m 77.2,131.5 v -9.2 h 3.2 l 43.1,48.7 v 9.3 h -3.1 z m 0,47.9 v -41.8 l 9,10 v 31.9 h -9 z m 37.2,-24.3 v -31.9 h 9 v 41.7 z" />
	<path
   id="XMLID_213_"
   class="st6"
   d="m 137.6,179.4 v -56.1 h 36.9 v 8.1 h -27.9 v 39.9 h 28.9 v 8.1 z m 12.9,-29.7 v 0 c 0,-2.1 1.7,-3.8 3.8,-3.8 h 13.3 v 7.6 h -13.3 c -2.1,-0.1 -3.8,-1.8 -3.8,-3.8" />
	<path
   id="XMLID_209_"
   class="st6"
   d="m 182,168.2 6.3,-4.9 c 4.1,6 9,8.9 14.7,8.9 0.5,0 0.9,0 1.4,-0.1 2.3,-0.2 4.4,1.5 4.4,3.8 v 0.3 c 0,2 -1.5,3.6 -3.5,3.9 -0.7,0.1 -1.4,0.1 -2.1,0.1 -4.6,0 -8.8,-1.1 -12.5,-3.3 -3.6,-2 -6.6,-5 -8.7,-8.7 m 3.2,-30.6 c 0,-3.1 0.8,-5.7 2.5,-8 1.7,-2.3 3.9,-4 6.7,-5.1 v 11.7 c 0,0.9 0.1,1.6 0.2,2.3 0.2,0.7 0.4,1.3 0.8,1.9 0.4,0.6 0.8,1 1.1,1.4 0.3,0.4 0.9,0.8 1.6,1.2 0.7,0.4 1.3,0.8 1.8,1 0.5,0.2 1.2,0.6 2.2,1.1 l 6.3,2.9 c 4.5,2.1 7.9,4.3 10.1,6.8 2.2,2.4 3.3,5.5 3.3,9.2 0,3.2 -0.8,6.1 -2.4,8.4 -1.6,2.4 -3.9,4.2 -6.7,5.4 v -12.4 c 0,-0.9 -0.1,-1.7 -0.2,-2.4 -0.2,-0.7 -0.4,-1.4 -0.8,-2 -0.4,-0.6 -0.8,-1.1 -1.2,-1.5 -0.4,-0.4 -1,-0.9 -1.7,-1.3 -0.7,-0.4 -1.4,-0.8 -2,-1.1 -0.6,-0.3 -1.3,-0.7 -2.3,-1.1 l -6.2,-2.9 c -2,-0.9 -3.7,-1.8 -5.2,-2.8 -1.5,-0.9 -2.8,-2 -4.1,-3.3 -1.3,-1.2 -2.2,-2.7 -2.9,-4.2 -0.6,-1.6 -0.9,-3.3 -0.9,-5.2 m 13.1,-11.2 v 0 c 0,-2.2 1.7,-3.9 3.9,-4 0.3,0 0.6,0 0.9,0 4,0 7.5,0.9 10.6,2.8 3.1,1.8 5.6,4.3 7.3,7.3 l -6.3,4.8 c -3,-4.5 -6.9,-6.8 -11.8,-6.8 -0.1,0 -0.3,0 -0.4,0 -2.3,0 -4.2,-1.8 -4.2,-4.1" />
	<rect
   id="XMLID_172_"
   x="227.8"
   y="123.3"
   class="st6"
   width="46.799999"
   height="8.1000004" />
	<polygon
   id="XMLID_171_"
   class="st6"
   points="255.7,135.2 255.7,176.9 253.5,175 249.2,174.8 246.6,177.5 246.6,135.2 " />
	<path
   id="XMLID_170_"
   class="st4"
   d="m 256.6,180 c 0,3 -2.5,5.5 -5.5,5.5 -3,0 -5.5,-2.5 -5.5,-5.5 0,-3 2.5,-5.5 5.5,-5.5 3.1,0 5.5,2.4 5.5,5.5" />
	<circle
   id="XMLID_169_"
   class="st5"
   cx="251.10001"
   cy="180"
   r="5.5" />
</g>
































































</svg>
