<?xml version="1.0" encoding="UTF-8"?>
<!-- Generator: Adobe Illustrator 19.0.0, SVG Export Plug-In . SVG Version: 6.00 Build 0)  -->
<svg xmlns="http://www.w3.org/2000/svg" xmlns:xlink="http://www.w3.org/1999/xlink" version="1.1" id="Livello_1" x="0px" y="0px" viewBox="0 0 300 300" style="enable-background:new 0 0 300 300;" xml:space="preserve">
<style type="text/css">
	.st0{fill:none;stroke:#CED041;stroke-miterlimit:10;}
	.st1{opacity:0.2;enable-background:new    ;}
	.st2{clip-path:url(#XMLID_152_);}
	.st3{clip-path:url(#XMLID_154_);fill:#CED041;}
	.st4{fill:#FFFFFF;}
	.st5{fill:none;stroke:#4B4E4F;stroke-width:0.809;stroke-miterlimit:10;}
	.st6{fill:#4B4E4F;}
	.st7{clip-path:url(#XMLID_155_);}
	.st8{clip-path:url(#XMLID_156_);fill:#32BDC9;}
	.st9{fill:none;stroke:#396FB5;stroke-miterlimit:10;}
	.st10{clip-path:url(#XMLID_157_);}
	.st11{clip-path:url(#XMLID_159_);fill:#3A70B5;}
	.st12{fill:none;stroke:#3A70B5;stroke-miterlimit:10;}
	.st13{fill:none;stroke:#328065;stroke-miterlimit:10;}
	.st14{clip-path:url(#XMLID_160_);}
	.st15{clip-path:url(#XMLID_161_);fill:#318166;}
	.st16{fill:none;stroke:#318166;stroke-miterlimit:10;}
	.st17{fill:none;stroke:#4ABEB4;stroke-miterlimit:10;}
	.st18{clip-path:url(#XMLID_163_);}
	.st19{clip-path:url(#XMLID_164_);fill:#4ABEB5;}
	.st20{fill:none;stroke:#4ABEB5;stroke-miterlimit:10;}
	.st21{fill:none;stroke:#3B57A4;stroke-miterlimit:10;}
	.st22{clip-path:url(#XMLID_166_);}
	.st23{clip-path:url(#XMLID_167_);fill:#3B58A4;}
	.st24{fill:none;stroke:#3B58A4;stroke-miterlimit:10;}
	.st25{clip-path:url(#XMLID_168_);}
	.st26{clip-path:url(#XMLID_203_);fill:#318166;}
	.st27{fill:none;stroke:#2E9FCA;stroke-miterlimit:10;}
	.st28{clip-path:url(#XMLID_205_);}
	.st29{clip-path:url(#XMLID_206_);fill:#2E9FCA;}
	.st30{fill:none;stroke:#99C94B;stroke-miterlimit:10;}
	.st31{clip-path:url(#XMLID_207_);}
	.st32{clip-path:url(#XMLID_208_);fill:#99C94D;}
	.st33{fill:none;stroke:#99C94D;stroke-miterlimit:10;}
	.st34{fill:none;stroke:#31BDCB;stroke-miterlimit:10;}
	.st35{fill:none;stroke:#32BDC9;stroke-miterlimit:10;}
	.st36{fill:none;stroke:#00BADE;stroke-miterlimit:10;}
</style>
<path id="XMLID_839_" class="st0" d="M4411.9,204.6c11.6-8.9,14-24.4,7.1-34.4c-5.2-7.6-15.3-11.3-25.4-9.3"></path>
<path id="XMLID_838_" class="st0" d="M4557.5,93.2c5.5,37.3-9.4,74.9-39,98c-30.3,23.7-71.3,28.8-106.6,13.3"></path>
<path id="XMLID_837_" class="st0" d="M4449.5,233.4c4.3-9.4,3-20.2-3.3-27.1c-8.1-8.9-23.1-10.2-34.2-1.8"></path>
<path id="XMLID_836_" class="st0" d="M4557.4,204.5c-8-8.3-20.7-18.9-38.5-25c-53.4-18-102.5,21.3-106.9,25"></path>
<path id="XMLID_835_" class="st0" d="M4496.5,57.8c-13,5.9-37.3,19.2-57,45.9c-31.1,42.2-28.7,88-27.6,100.8"></path>
<g id="XMLID_1_" class="st1">
	<g id="XMLID_2_">
		<defs>
			<rect id="XMLID_832_" x="4391.6" y="56.1" width="187.5" height="187.5"></rect>
		</defs>
		<clipPath id="XMLID_152_">
			<use xlink:href="#XMLID_832_" style="overflow:visible;"></use>
		</clipPath>
		<g id="XMLID_3_" class="st2">
			<defs>
				<rect id="XMLID_833_" x="4393.7" y="57.8" width="184.1" height="184.1"></rect>
			</defs>
			<clipPath id="XMLID_154_">
				<use xlink:href="#XMLID_833_" style="overflow:visible;"></use>
			</clipPath>
			<path id="XMLID_834_" class="st3" d="M4577.7,149.8c0,50.8-41.2,92-92,92c-50.8,0-92-41.2-92-92c0-50.8,41.2-92,92-92     C4536.5,57.8,4577.7,99,4577.7,149.8"></path>
		</g>
	</g>
</g>
<path id="XMLID_831_" class="st4" d="M4512.8,57.8c0,9-7.3,16.2-16.2,16.2c-9,0-16.2-7.3-16.2-16.2c0-9,7.3-16.2,16.2-16.2  C4505.5,41.6,4512.8,48.9,4512.8,57.8"></path>
<circle id="XMLID_830_" class="st0" cx="4496.5" cy="57.8" r="16.2"></circle>
<path id="XMLID_829_" class="st4" d="M4573.6,93.2c0,9-7.3,16.2-16.2,16.2c-9,0-16.2-7.3-16.2-16.2s7.3-16.2,16.2-16.2  C4566.3,77,4573.6,84.2,4573.6,93.2"></path>
<circle id="XMLID_828_" class="st0" cx="4557.4" cy="93.2" r="16.2"></circle>
<path id="XMLID_827_" class="st4" d="M4573.6,204.6c0,9-7.3,16.2-16.2,16.2c-9,0-16.2-7.3-16.2-16.2c0-9,7.3-16.2,16.2-16.2  C4566.3,188.4,4573.6,195.6,4573.6,204.6"></path>
<circle id="XMLID_826_" class="st0" cx="4557.4" cy="204.6" r="16.2"></circle>
<path id="XMLID_825_" class="st4" d="M4468.2,233.4c0,9-7.3,16.2-16.2,16.2s-16.2-7.3-16.2-16.2c0-9,7.3-16.2,16.2-16.2  S4468.2,224.5,4468.2,233.4"></path>
<circle id="XMLID_824_" class="st0" cx="4452" cy="233.4" r="16.2"></circle>
<path id="XMLID_823_" class="st4" d="M4428.2,204.6c0,9-7.3,16.2-16.2,16.2s-16.2-7.3-16.2-16.2c0-9,7.3-16.2,16.2-16.2  S4428.2,195.6,4428.2,204.6"></path>
<circle id="XMLID_822_" class="st0" cx="4411.9" cy="204.6" r="16.2"></circle>
<path id="XMLID_821_" class="st4" d="M4413,160.3c0,9-7.3,16.2-16.2,16.2c-9,0-16.2-7.3-16.2-16.2c0-9,7.3-16.2,16.2-16.2  C4405.7,144.1,4413,151.4,4413,160.3"></path>
<circle id="XMLID_820_" class="st0" cx="4396.8" cy="160.3" r="16.2"></circle>
<path id="XMLID_819_" class="st4" d="M4441,204.6c0,15.5-12.6,28.1-28.1,28.1c-15.5,0-28.1-12.6-28.1-28.1  c0-15.5,12.6-28.1,28.1-28.1C4428.5,176.5,4441,189.1,4441,204.6"></path>
<circle id="XMLID_818_" class="st0" cx="4413" cy="204.6" r="28.1"></circle>
<path id="XMLID_817_" class="st4" d="M4370.2,125.4c-1.2-1.1-1.8-2.5-1.8-4.2c0-1.7,0.6-3.1,1.8-4.2c1.2-1.2,2.6-1.7,4.3-1.7  c1.7,0,3.1,0.6,4.3,1.7c1.2,1.2,1.8,2.6,1.8,4.2c0,1.6-0.6,3-1.8,4.1c-1.2,1.1-2.6,1.7-4.3,1.7  C4372.8,127.1,4371.3,126.5,4370.2,125.4"></path>
<path id="XMLID_816_" class="st5" d="M4370.2,125.4c-1.2-1.1-1.8-2.5-1.8-4.2c0-1.7,0.6-3.1,1.8-4.2c1.2-1.2,2.6-1.7,4.3-1.7  c1.7,0,3.1,0.6,4.3,1.7c1.2,1.2,1.8,2.6,1.8,4.2c0,1.6-0.6,3-1.8,4.1c-1.2,1.1-2.6,1.7-4.3,1.7  C4372.8,127.1,4371.3,126.5,4370.2,125.4z"></path>
<rect id="XMLID_815_" x="4370" y="136.7" class="st6" width="8.9" height="41.6"></rect>
<path id="XMLID_4_" class="st6" d="M4416.1,130.6v-9.1h3.1l42.9,48.5v9.3h-3.1L4416.1,130.6z M4416.1,178.4v-41.7l9,9.9v31.8H4416.1  z M4453.2,154.2v-31.8h9v41.5L4453.2,154.2z"></path>
<path id="XMLID_5_" class="st6" d="M4476.3,178.4v-55.9h36.8v8.1h-27.8v39.8h28.8v8.1H4476.3z M4489.2,148.7L4489.2,148.7  c0-2.1,1.7-3.8,3.8-3.8h13.3v7.5H4493C4490.9,152.5,4489.2,150.8,4489.2,148.7"></path>
<path id="XMLID_6_" class="st6" d="M4520.5,167.2l6.3-4.8c4.1,5.9,9,8.9,14.7,8.9c0.5,0,0.9,0,1.4-0.1c2.3-0.2,4.3,1.5,4.3,3.8v0.3  c0,2-1.5,3.6-3.5,3.8c-0.7,0.1-1.4,0.1-2.1,0.1c-4.6,0-8.8-1.1-12.4-3.2C4525.6,173.9,4522.7,170.9,4520.5,167.2 M4523.8,136.7  c0-3.1,0.8-5.7,2.5-8c1.7-2.3,3.9-4,6.7-5.1v11.7c0,0.9,0.1,1.6,0.2,2.3c0.2,0.7,0.4,1.3,0.8,1.9c0.4,0.6,0.8,1,1.1,1.4  c0.3,0.4,0.9,0.8,1.6,1.2c0.7,0.4,1.3,0.8,1.8,1c0.5,0.2,1.2,0.6,2.2,1.1l6.3,2.9c4.5,2.1,7.9,4.3,10.1,6.8c2.2,2.4,3.3,5.5,3.3,9.2  c0,3.2-0.8,6-2.4,8.4c-1.6,2.4-3.9,4.2-6.7,5.4v-12.4c0-0.9-0.1-1.7-0.2-2.4c-0.2-0.7-0.4-1.4-0.8-2c-0.4-0.6-0.8-1.1-1.2-1.5  c-0.4-0.4-1-0.9-1.7-1.3c-0.7-0.4-1.4-0.8-1.9-1.1c-0.6-0.3-1.3-0.7-2.3-1.1l-6.2-2.9c-2-0.9-3.7-1.8-5.2-2.8  c-1.4-0.9-2.8-2-4.1-3.3c-1.3-1.2-2.2-2.6-2.9-4.2C4524.1,140.3,4523.8,138.6,4523.8,136.7 M4536.8,125.6L4536.8,125.6  c0-2.2,1.7-3.9,3.9-4c0.3,0,0.6,0,0.9,0c3.9,0,7.5,0.9,10.6,2.8c3.1,1.8,5.5,4.3,7.3,7.2l-6.3,4.8c-3-4.5-6.9-6.7-11.7-6.7  c-0.1,0-0.3,0-0.4,0C4538.7,129.6,4536.8,127.9,4536.8,125.6"></path>
<rect id="XMLID_806_" x="4566.2" y="122.4" class="st6" width="46.7" height="8.1"></rect>
<polygon id="XMLID_805_" class="st6" points="4585,176.5 4585,134.4 4594,134.4 4594,175.9 4591.8,174 4587.6,173.8 "></polygon>
<path id="XMLID_804_" class="st4" d="M4594.9,178.9c0,3-2.4,5.5-5.5,5.5c-3,0-5.5-2.4-5.5-5.5s2.4-5.5,5.5-5.5  C4592.5,173.5,4594.9,175.9,4594.9,178.9"></path>
<circle id="XMLID_803_" class="st5" cx="4589.5" cy="178.9" r="5.5"></circle>
<g id="XMLID_739_" class="st1">
	<g id="XMLID_740_">
		<defs>
			<rect id="XMLID_741_" x="3525.4" y="55.5" width="188.5" height="190.6"></rect>
		</defs>
		<clipPath id="XMLID_155_">
			<use xlink:href="#XMLID_741_" style="overflow:visible;"></use>
		</clipPath>
		<g id="XMLID_742_" class="st7">
			<defs>
				<rect id="XMLID_743_" x="3526.3" y="57.3" width="187.2" height="187.2"></rect>
			</defs>
			<clipPath id="XMLID_156_">
				<use xlink:href="#XMLID_743_" style="overflow:visible;"></use>
			</clipPath>
			<path id="XMLID_744_" class="st8" d="M3713.5,150.9c0,51.7-41.9,93.6-93.6,93.6c-51.7,0-93.6-41.9-93.6-93.6     c0-51.7,41.9-93.6,93.6-93.6C3671.6,57.3,3713.5,99.2,3713.5,150.9"></path>
		</g>
	</g>
</g>
<path id="XMLID_650_" class="st9" d="M2835.5,185.9c-11.6-4.2-18.3-16.3-16-28.1c2.2-11.1,12.1-19.4,23.7-19.7"></path>
<path id="XMLID_649_" class="st9" d="M2823.5,94c-0.9,0.8-10.6,10.3-8.5,22.8c2,11.8,13.8,21.4,28.3,21.3"></path>
<path id="XMLID_648_" class="st9" d="M2693.1,76.5c4.5,12,13.4,29.7,30.8,44.4c47.8,40.3,114.1,19,119.4,17.2"></path>
<path id="XMLID_647_" class="st9" d="M2806.2,224c-1.3-1-24.1-18.2-21.9-42.5c2.1-23.7,27.2-45.1,59-43.4"></path>
<g id="XMLID_641_" class="st1">
	<g id="XMLID_642_">
		<defs>
			<rect id="XMLID_643_" x="2656.9" y="56.2" width="188.1" height="188.1"></rect>
		</defs>
		<clipPath id="XMLID_157_">
			<use xlink:href="#XMLID_643_" style="overflow:visible;"></use>
		</clipPath>
		<g id="XMLID_644_" class="st10">
			<defs>
				<rect id="XMLID_645_" x="2658.6" y="58" width="184.7" height="184.7"></rect>
			</defs>
			<clipPath id="XMLID_159_">
				<use xlink:href="#XMLID_645_" style="overflow:visible;"></use>
			</clipPath>
			<path id="XMLID_646_" class="st11" d="M2843.3,150.3c0,51-41.3,92.3-92.3,92.3c-51,0-92.3-41.3-92.3-92.3     c0-51,41.3-92.3,92.3-92.3C2801.9,58,2843.3,99.3,2843.3,150.3"></path>
		</g>
	</g>
</g>
<path id="XMLID_640_" class="st4" d="M2709.4,77.6c0,9-7.3,16.3-16.3,16.3c-9,0-16.3-7.3-16.3-16.3c0-9,7.3-16.3,16.3-16.3  C2702.1,61.3,2709.4,68.6,2709.4,77.6"></path>
<circle id="XMLID_639_" class="st12" cx="2693.1" cy="77.6" r="16.3"></circle>
<path id="XMLID_638_" class="st4" d="M2838.8,93.9c0,9-7.3,16.3-16.3,16.3c-9,0-16.3-7.3-16.3-16.3c0-9,7.3-16.3,16.3-16.3  C2831.5,77.6,2838.8,84.9,2838.8,93.9"></path>
<circle id="XMLID_637_" class="st12" cx="2822.5" cy="93.9" r="16.3"></circle>
<path id="XMLID_636_" class="st4" d="M2822.5,224.2c0,9-7.3,16.3-16.3,16.3c-9,0-16.3-7.3-16.3-16.3s7.3-16.3,16.3-16.3  C2815.2,207.9,2822.5,215.2,2822.5,224.2"></path>
<circle id="XMLID_635_" class="st12" cx="2806.2" cy="224.2" r="16.3"></circle>
<path id="XMLID_634_" class="st4" d="M2855,185.9c0,9-7.3,16.3-16.3,16.3c-9,0-16.3-7.3-16.3-16.3s7.3-16.3,16.3-16.3  C2847.8,169.6,2855,176.9,2855,185.9"></path>
<circle id="XMLID_633_" class="st12" cx="2838.8" cy="185.9" r="16.3"></circle>
<path id="XMLID_632_" class="st4" d="M2859.6,140.5c0,9-7.3,16.3-16.3,16.3c-9,0-16.3-7.3-16.3-16.3s7.3-16.3,16.3-16.3  C2852.3,124.3,2859.6,131.6,2859.6,140.5"></path>
<circle id="XMLID_631_" class="st12" cx="2843.3" cy="140.5" r="16.3"></circle>
<path id="XMLID_630_" class="st4" d="M2871.4,140.5c0,15.5-12.6,28.2-28.2,28.2c-15.5,0-28.2-12.6-28.2-28.2s12.6-28.2,28.2-28.2  C2858.8,112.4,2871.4,125,2871.4,140.5"></path>
<circle id="XMLID_629_" class="st12" cx="2843.3" cy="140.5" r="28.2"></circle>
<path id="XMLID_628_" class="st4" d="M2639.7,120.8c-1.2-1.1-1.8-2.5-1.8-4.2c0-1.7,0.6-3.1,1.8-4.2c1.2-1.2,2.6-1.7,4.3-1.7  c1.7,0,3.1,0.6,4.3,1.7c1.2,1.2,1.8,2.6,1.8,4.2c0,1.6-0.6,3-1.8,4.2c-1.2,1.1-2.7,1.7-4.3,1.7  C2642.3,122.5,2640.9,121.9,2639.7,120.8"></path>
<path id="XMLID_627_" class="st5" d="M2639.7,120.8c-1.2-1.1-1.8-2.5-1.8-4.2c0-1.7,0.6-3.1,1.8-4.2c1.2-1.2,2.6-1.7,4.3-1.7  c1.7,0,3.1,0.6,4.3,1.7c1.2,1.2,1.8,2.6,1.8,4.2c0,1.6-0.6,3-1.8,4.2c-1.2,1.1-2.7,1.7-4.3,1.7  C2642.3,122.5,2640.9,121.9,2639.7,120.8z"></path>
<rect id="XMLID_626_" x="2639.5" y="132.2" class="st6" width="8.9" height="41.8"></rect>
<path id="XMLID_622_" class="st6" d="M2685.7,126.1v-9.2h3.2l43.1,48.7v9.3h-3.1L2685.7,126.1z M2685.7,173.9v-41.8l9,10v31.9  H2685.7z M2723,149.7v-31.9h9v41.7L2723,149.7z"></path>
<path id="XMLID_619_" class="st6" d="M2746.2,173.9v-56.1h36.9v8.1h-27.9v39.9h28.9v8.1H2746.2z M2759.1,144.2L2759.1,144.2  c0-2.1,1.7-3.8,3.8-3.8h13.3v7.6h-13.3C2760.8,148,2759.1,146.3,2759.1,144.2"></path>
<path id="XMLID_615_" class="st6" d="M2790.6,162.7l6.4-4.9c4.1,6,9,8.9,14.7,8.9c0.5,0,0.9,0,1.4-0.1c2.3-0.2,4.4,1.5,4.4,3.8v0.3  c0,2-1.5,3.6-3.5,3.9c-0.7,0.1-1.4,0.1-2.1,0.1c-4.6,0-8.8-1.1-12.5-3.3C2795.6,169.4,2792.7,166.5,2790.6,162.7 M2793.8,132.2  c0-3.1,0.8-5.7,2.5-8c1.7-2.3,3.9-4,6.7-5.1v11.7c0,0.9,0.1,1.6,0.2,2.3c0.2,0.7,0.4,1.3,0.8,1.9c0.4,0.6,0.8,1,1.1,1.4  c0.3,0.4,0.9,0.8,1.6,1.2c0.7,0.4,1.3,0.8,1.8,1c0.5,0.2,1.2,0.6,2.2,1.1l6.3,2.9c4.5,2.1,7.9,4.3,10.1,6.8c2.2,2.4,3.3,5.5,3.3,9.2  c0,3.2-0.8,6.1-2.4,8.4c-1.6,2.4-3.9,4.2-6.7,5.4v-12.4c0-0.9-0.1-1.7-0.3-2.4c-0.2-0.7-0.4-1.4-0.8-2c-0.4-0.6-0.8-1.1-1.2-1.5  c-0.4-0.4-1-0.9-1.7-1.3c-0.7-0.4-1.4-0.8-2-1.1c-0.6-0.3-1.3-0.7-2.3-1.1l-6.2-2.9c-2-0.9-3.7-1.8-5.2-2.8c-1.5-0.9-2.8-2-4.1-3.3  c-1.3-1.2-2.2-2.7-2.9-4.2C2794.1,135.8,2793.8,134,2793.8,132.2 M2806.9,121L2806.9,121c0-2.2,1.7-3.9,3.9-4.1c0.3,0,0.6,0,0.9,0  c4,0,7.5,0.9,10.6,2.8c3.1,1.8,5.6,4.3,7.3,7.3l-6.3,4.8c-3-4.5-6.9-6.8-11.8-6.8c-0.1,0-0.3,0-0.4,0  C2808.8,125.1,2806.9,123.3,2806.9,121"></path>
<rect id="XMLID_614_" x="2836.3" y="117.8" class="st6" width="46.8" height="8.1"></rect>
<polygon id="XMLID_613_" class="st6" points="2855.2,172 2855.2,129.8 2864.2,129.8 2864.2,171.4 2862.1,169.6 2857.8,169.4 "></polygon>
<path id="XMLID_612_" class="st4" d="M2865.2,174.5c0,3-2.5,5.5-5.5,5.5c-3,0-5.5-2.5-5.5-5.5c0-3,2.5-5.5,5.5-5.5  C2862.7,169,2865.2,171.5,2865.2,174.5"></path>
<circle id="XMLID_611_" class="st5" cx="2859.7" cy="174.5" r="5.5"></circle>
<g id="XMLID_7_">
	<path id="XMLID_584_" class="st13" d="M1790.7,163.3c4.1-4.5,37.6-39.9,89.4-36c59.3,4.5,87.5,56.2,89.2,59.4"></path>
	<path id="XMLID_583_" class="st13" d="M1809.3,94.4c1.9,1,18.9,10.5,20.7,27.3c1.9,17.9-14.1,37.9-39.2,41.6"></path>
	<path id="XMLID_582_" class="st13" d="M1969.4,115.7c-4.4,9.6-21.4,43.4-60.6,60.5c-59,25.7-114-10.1-118.1-12.8"></path>
	<path id="XMLID_581_" class="st13" d="M1918.8,65c-4.9,13.5-15,35.5-35.6,55.8c-35.5,34.9-78.2,41.1-92.5,42.5"></path>
	<g id="XMLID_8_" class="st1">
		<g id="XMLID_9_">
			<defs>
				<rect id="XMLID_578_" x="1789.5" y="56.9" width="186.7" height="186.7"></rect>
			</defs>
			<clipPath id="XMLID_160_">
				<use xlink:href="#XMLID_578_" style="overflow:visible;"></use>
			</clipPath>
			<g id="XMLID_10_" class="st14">
				<defs>
					<rect id="XMLID_579_" x="1790.7" y="58" width="185.4" height="185.4"></rect>
				</defs>
				<clipPath id="XMLID_161_">
					<use xlink:href="#XMLID_579_" style="overflow:visible;"></use>
				</clipPath>
				<path id="XMLID_580_" class="st15" d="M1976.2,150.7c0,51.2-41.5,92.7-92.7,92.7s-92.7-41.5-92.7-92.7      c0-51.2,41.5-92.7,92.7-92.7S1976.2,99.5,1976.2,150.7"></path>
			</g>
		</g>
	</g>
	<path id="XMLID_577_" class="st4" d="M1935.7,67.8c0,9-7.3,16.3-16.3,16.3c-9,0-16.3-7.3-16.3-16.3s7.3-16.3,16.3-16.3   C1928.4,51.5,1935.7,58.8,1935.7,67.8"></path>
	<circle id="XMLID_576_" class="st16" cx="1919.4" cy="67.8" r="16.3"></circle>
	<path id="XMLID_575_" class="st4" d="M1985.7,117.5c0,9-7.3,16.3-16.3,16.3s-16.3-7.3-16.3-16.3c0-9,7.3-16.3,16.3-16.3   S1985.7,108.4,1985.7,117.5"></path>
	<circle id="XMLID_574_" class="st16" cx="1969.4" cy="117.5" r="16.3"></circle>
	<path id="XMLID_573_" class="st4" d="M1985.7,185.4c0,9-7.3,16.3-16.3,16.3c-9,0-16.3-7.3-16.3-16.3c0-9,7.3-16.3,16.3-16.3   C1978.4,169,1985.7,176.4,1985.7,185.4"></path>
	<circle id="XMLID_572_" class="st16" cx="1969.4" cy="185.4" r="16.3"></circle>
	<path id="XMLID_571_" class="st4" d="M1826.6,95.2c0,9-7.3,16.3-16.3,16.3c-9,0-16.3-7.3-16.3-16.3s7.3-16.3,16.3-16.3   C1819.3,78.8,1826.6,86.1,1826.6,95.2"></path>
	<circle id="XMLID_570_" class="st16" cx="1810.3" cy="95.2" r="16.3"></circle>
	<path id="XMLID_569_" class="st4" d="M1807.1,163.7c0,9-7.3,16.3-16.3,16.3c-9,0-16.3-7.3-16.3-16.3c0-9,7.3-16.3,16.3-16.3   C1799.8,147.4,1807.1,154.7,1807.1,163.7"></path>
	<circle id="XMLID_568_" class="st16" cx="1790.7" cy="163.7" r="16.3"></circle>
	<path id="XMLID_567_" class="st4" d="M1819.4,163.3c0,15.6-12.7,28.3-28.3,28.3c-15.6,0-28.3-12.7-28.3-28.3s12.7-28.3,28.3-28.3   C1806.7,135.1,1819.4,147.7,1819.4,163.3"></path>
	<circle id="XMLID_566_" class="st16" cx="1791.1" cy="163.3" r="28.3"></circle>
	<path id="XMLID_565_" class="st4" d="M1767.6,126c-1.2-1.1-1.8-2.5-1.8-4.2c0-1.7,0.6-3.1,1.8-4.3c1.2-1.2,2.6-1.8,4.3-1.8   c1.7,0,3.1,0.6,4.3,1.8c1.2,1.2,1.8,2.6,1.8,4.3c0,1.6-0.6,3-1.8,4.2c-1.2,1.1-2.7,1.7-4.4,1.7   C1770.3,127.7,1768.8,127.2,1767.6,126"></path>
	<path id="XMLID_564_" class="st5" d="M1767.6,126c-1.2-1.1-1.8-2.5-1.8-4.2c0-1.7,0.6-3.1,1.8-4.3c1.2-1.2,2.6-1.8,4.3-1.8   c1.7,0,3.1,0.6,4.3,1.8c1.2,1.2,1.8,2.6,1.8,4.3c0,1.6-0.6,3-1.8,4.2c-1.2,1.1-2.7,1.7-4.4,1.7   C1770.3,127.7,1768.8,127.2,1767.6,126z"></path>
	<rect id="XMLID_563_" x="1767.5" y="137.4" class="st6" width="9" height="41.9"></rect>
	<path id="XMLID_11_" class="st6" d="M1813.9,131.3v-9.2h3.2l43.3,48.9v9.3h-3.1L1813.9,131.3z M1813.9,179.4v-42l9,10v32H1813.9z    M1851.3,155v-32h9v41.8L1851.3,155z"></path>
	<path id="XMLID_12_" class="st6" d="M1874.6,179.4V123h37.1v8.1h-28v40.1h29v8.1H1874.6z M1887.5,149.5L1887.5,149.5   c0-2.1,1.7-3.8,3.8-3.8h13.4v7.6h-13.4C1889.2,153.3,1887.5,151.6,1887.5,149.5"></path>
	<path id="XMLID_13_" class="st6" d="M1919.1,168.1l6.4-4.9c4.1,6,9,9,14.8,9c0.5,0,0.9,0,1.4-0.1c2.3-0.2,4.4,1.5,4.4,3.9v0.3   c0,2-1.5,3.7-3.5,3.9c-0.7,0.1-1.4,0.1-2.2,0.1c-4.6,0-8.8-1.1-12.5-3.3C1924.2,174.9,1921.3,171.9,1919.1,168.1 M1922.4,137.4   c0-3.1,0.8-5.8,2.5-8.1c1.7-2.3,3.9-4,6.7-5.1V136c0,0.9,0.1,1.6,0.2,2.3c0.2,0.7,0.4,1.3,0.8,1.9c0.4,0.6,0.8,1,1.1,1.4   c0.3,0.4,0.9,0.8,1.6,1.2c0.7,0.4,1.3,0.8,1.8,1c0.5,0.2,1.2,0.6,2.2,1.1l6.3,2.9c4.6,2.1,7.9,4.4,10.1,6.8   c2.2,2.5,3.3,5.5,3.3,9.2c0,3.3-0.8,6.1-2.5,8.5c-1.6,2.4-3.9,4.2-6.8,5.4v-12.5c0-0.9-0.1-1.7-0.2-2.5c-0.2-0.7-0.4-1.4-0.8-2   c-0.4-0.6-0.8-1.1-1.2-1.5c-0.4-0.4-1-0.9-1.7-1.3c-0.7-0.4-1.4-0.8-2-1.1c-0.6-0.3-1.4-0.7-2.4-1.1l-6.2-2.9   c-2-0.9-3.7-1.8-5.2-2.8c-1.5-0.9-2.8-2-4.1-3.3c-1.3-1.3-2.2-2.7-2.9-4.3C1922.7,141.1,1922.4,139.3,1922.4,137.4 M1935.5,126.2   L1935.5,126.2c0-2.2,1.7-3.9,3.9-4.1c0.3,0,0.6,0,0.9,0c4,0,7.5,0.9,10.7,2.8c3.1,1.9,5.6,4.3,7.3,7.3l-6.3,4.8   c-3-4.5-6.9-6.8-11.8-6.8c-0.1,0-0.3,0-0.4,0C1937.4,130.3,1935.5,128.5,1935.5,126.2"></path>
	<rect id="XMLID_554_" x="1965.1" y="123" class="st6" width="47" height="8.1"></rect>
	<polygon id="XMLID_553_" class="st6" points="1984,177.5 1984,135 1993.1,135 1993.1,176.8 1990.9,175 1986.7,174.8  "></polygon>
	<path id="XMLID_552_" class="st4" d="M1994.1,179.9c0,3-2.5,5.5-5.5,5.5c-3,0-5.5-2.5-5.5-5.5s2.5-5.5,5.5-5.5   C1991.6,174.4,1994.1,176.9,1994.1,179.9"></path>
	<circle id="XMLID_551_" class="st5" cx="1988.6" cy="179.9" r="5.5"></circle>
</g>
<g id="XMLID_466_">
	<path id="XMLID_464_" class="st17" d="M1053,235.4c6.2-50.2-15.8-96.3-53.6-115.2c-28.2-14.1-56.6-8.5-67.5-5.8"></path>
	<path id="XMLID_463_" class="st17" d="M1109.4,137.7c-25.7-11-55.1-2.8-70.1,18.3c-17.1,24-11.9,59.9,13.7,79.4"></path>
	<path id="XMLID_462_" class="st17" d="M1103.1,185.4c-13.5-13.1-33-15.4-45.8-7.2c-16.3,10.5-21,38-4.3,57.2"></path>
	<path id="XMLID_461_" class="st17" d="M931.9,185.4c20.3-22.4,52.7-29.4,80-17.3c26.1,11.6,42.5,38.4,41.1,67.3"></path>
	<g id="XMLID_497_" class="st1">
		<g id="XMLID_498_">
			<defs>
				<rect id="XMLID_458_" x="925.3" y="55.8" width="186.2" height="188.3"></rect>
			</defs>
			<clipPath id="XMLID_163_">
				<use xlink:href="#XMLID_458_" style="overflow:visible;"></use>
			</clipPath>
			<g id="XMLID_500_" class="st18">
				<defs>
					<rect id="XMLID_459_" x="925.9" y="57.6" width="184.9" height="184.9"></rect>
				</defs>
				<clipPath id="XMLID_164_">
					<use xlink:href="#XMLID_459_" style="overflow:visible;"></use>
				</clipPath>
				<path id="XMLID_460_" class="st19" d="M1110.7,150c0,51.1-41.4,92.4-92.4,92.4c-51.1,0-92.4-41.4-92.4-92.4      c0-51.1,41.4-92.4,92.4-92.4C1069.3,57.6,1110.7,99,1110.7,150"></path>
			</g>
		</g>
	</g>
	<path id="XMLID_457_" class="st4" d="M948.2,116.6c0,9-7.3,16.3-16.3,16.3c-9,0-16.3-7.3-16.3-16.3c0-9,7.3-16.3,16.3-16.3   C940.9,100.3,948.2,107.6,948.2,116.6"></path>
	<circle id="XMLID_456_" class="st20" cx="931.9" cy="116.6" r="16.3"></circle>
	<path id="XMLID_455_" class="st4" d="M948.2,184.1c0,9-7.3,16.3-16.3,16.3c-9,0-16.3-7.3-16.3-16.3c0-9,7.3-16.3,16.3-16.3   C940.9,167.8,948.2,175.1,948.2,184.1"></path>
	<circle id="XMLID_454_" class="st20" cx="931.9" cy="184.1" r="16.3"></circle>
	<path id="XMLID_453_" class="st4" d="M1119.4,184.1c0,9-7.3,16.3-16.3,16.3s-16.3-7.3-16.3-16.3c0-9,7.3-16.3,16.3-16.3   S1119.4,175.1,1119.4,184.1"></path>
	<circle id="XMLID_452_" class="st20" cx="1103.1" cy="184.1" r="16.3"></circle>
	<path id="XMLID_451_" class="st4" d="M1125.7,138.9c0,9-7.3,16.3-16.3,16.3c-9,0-16.3-7.3-16.3-16.3s7.3-16.3,16.3-16.3   C1118.4,122.6,1125.7,129.9,1125.7,138.9"></path>
	<circle id="XMLID_450_" class="st20" cx="1109.4" cy="138.9" r="16.3"></circle>
	<path id="XMLID_449_" class="st4" d="M1069.4,235.4c0,9-7.3,16.3-16.3,16.3c-9,0-16.3-7.3-16.3-16.3s7.3-16.3,16.3-16.3   C1062.1,219.1,1069.4,226.4,1069.4,235.4"></path>
	<circle id="XMLID_448_" class="st20" cx="1053.1" cy="235.4" r="16.3"></circle>
	<path id="XMLID_447_" class="st4" d="M1081.3,235.4c0,15.6-12.6,28.2-28.2,28.2c-15.6,0-28.2-12.6-28.2-28.2   c0-15.6,12.6-28.2,28.2-28.2C1068.6,207.2,1081.3,219.8,1081.3,235.4"></path>
	<circle id="XMLID_446_" class="st20" cx="1053.1" cy="235.4" r="28.2"></circle>
	<path id="XMLID_445_" class="st4" d="M903.9,125.5c-1.2-1.1-1.8-2.5-1.8-4.2c0-1.7,0.6-3.1,1.8-4.2c1.2-1.2,2.6-1.7,4.3-1.7   c1.7,0,3.1,0.6,4.3,1.7c1.2,1.2,1.8,2.6,1.8,4.2c0,1.6-0.6,3-1.8,4.2c-1.2,1.1-2.7,1.7-4.3,1.7   C906.5,127.1,905.1,126.6,903.9,125.5"></path>
	<path id="XMLID_444_" class="st5" d="M903.9,125.5c-1.2-1.1-1.8-2.5-1.8-4.2c0-1.7,0.6-3.1,1.8-4.2c1.2-1.2,2.6-1.7,4.3-1.7   c1.7,0,3.1,0.6,4.3,1.7c1.2,1.2,1.8,2.6,1.8,4.2c0,1.6-0.6,3-1.8,4.2c-1.2,1.1-2.7,1.7-4.3,1.7   C906.5,127.1,905.1,126.6,903.9,125.5z"></path>
	<rect id="XMLID_443_" x="903.7" y="136.8" class="st6" width="8.9" height="41.8"></rect>
	<path id="XMLID_478_" class="st6" d="M950,130.7v-9.2h3.2l43.1,48.7v9.3h-3.1L950,130.7z M950,178.6v-41.9l9,10v31.9H950z    M987.3,154.4v-31.9h9v41.7L987.3,154.4z"></path>
	<path id="XMLID_475_" class="st6" d="M1010.5,178.6v-56.2h36.9v8.1h-27.9v40h28.9v8.1H1010.5z M1023.4,148.9L1023.4,148.9   c0-2.1,1.7-3.8,3.8-3.8h13.3v7.6h-13.3C1025.1,152.7,1023.4,151,1023.4,148.9"></path>
	<path id="XMLID_471_" class="st6" d="M1054.9,167.4l6.4-4.9c4.1,6,9,8.9,14.8,8.9c0.5,0,0.9,0,1.4-0.1c2.3-0.2,4.4,1.5,4.4,3.8v0.3   c0,2-1.5,3.6-3.5,3.9c-0.7,0.1-1.4,0.1-2.1,0.1c-4.6,0-8.8-1.1-12.5-3.3C1060,174.2,1057.1,171.2,1054.9,167.4 M1058.2,136.8   c0-3.1,0.8-5.8,2.5-8c1.7-2.3,3.9-4,6.7-5.1v11.8c0,0.9,0.1,1.6,0.2,2.3c0.2,0.7,0.4,1.3,0.8,1.9c0.4,0.6,0.8,1,1.1,1.4   c0.3,0.4,0.9,0.8,1.6,1.2c0.7,0.4,1.3,0.8,1.8,1c0.5,0.2,1.2,0.6,2.2,1.1l6.3,2.9c4.5,2.1,7.9,4.3,10.1,6.8   c2.2,2.5,3.3,5.5,3.3,9.2c0,3.2-0.8,6.1-2.5,8.5c-1.6,2.4-3.9,4.2-6.7,5.4v-12.4c0-0.9-0.1-1.7-0.3-2.5c-0.2-0.7-0.4-1.4-0.8-2   c-0.4-0.6-0.8-1.1-1.2-1.5c-0.4-0.4-1-0.9-1.7-1.3c-0.7-0.4-1.4-0.8-2-1.1c-0.6-0.3-1.4-0.7-2.3-1.1l-6.2-2.9   c-2-0.9-3.7-1.8-5.2-2.8c-1.5-0.9-2.8-2-4.1-3.3c-1.3-1.2-2.2-2.7-2.9-4.2C1058.5,140.4,1058.2,138.7,1058.2,136.8 M1071.3,125.6   L1071.3,125.6c0-2.2,1.7-3.9,3.9-4.1c0.3,0,0.6,0,0.9,0c4,0,7.5,0.9,10.6,2.8c3.1,1.8,5.6,4.3,7.3,7.3l-6.3,4.8   c-3-4.5-6.9-6.8-11.8-6.8c-0.1,0-0.3,0-0.4,0C1073.2,129.7,1071.3,127.9,1071.3,125.6"></path>
	<rect id="XMLID_434_" x="1100.8" y="122.5" class="st6" width="46.9" height="8.1"></rect>
	<polygon id="XMLID_433_" class="st6" points="1119.6,176.8 1119.6,134.5 1128.7,134.5 1128.7,176.1 1126.5,174.3 1122.3,174.1  "></polygon>
	<path id="XMLID_432_" class="st4" d="M1129.7,179.2c0,3-2.5,5.5-5.5,5.5c-3,0-5.5-2.5-5.5-5.5s2.5-5.5,5.5-5.5   C1127.2,173.7,1129.7,176.2,1129.7,179.2"></path>
	<circle id="XMLID_431_" class="st5" cx="1124.2" cy="179.2" r="5.5"></circle>
</g>
<g id="XMLID_204_">
	<path id="XMLID_202_" class="st21" d="M116.5,68.3c15.2,30.1,10.3,64.1-10.3,83.2c-17.8,16.5-41,15.9-46.9,15.6"></path>
	<path id="XMLID_201_" class="st21" d="M226.6,98.1c-6.9,5.3-19.8,13.5-37.1,14.7c-28.4,2-56.7-15.5-73.1-44.5"></path>
	<path id="XMLID_200_" class="st21" d="M95.2,229.1c2.5-1.9,56.7-43.8,48.5-104.6c-3.8-28.1-19.2-47.5-27.2-56.2"></path>
	<g id="XMLID_233_" class="st1">
		<g id="XMLID_234_">
			<defs>
				<rect id="XMLID_197_" x="57" y="57.5" width="185.9" height="185.9"></rect>
			</defs>
			<clipPath id="XMLID_166_">
				<use xlink:href="#XMLID_197_" style="overflow:visible;"></use>
			</clipPath>
			<g id="XMLID_236_" class="st22">
				<defs>
					<rect id="XMLID_198_" x="57.9" y="58.6" width="184.7" height="184.7"></rect>
				</defs>
				<clipPath id="XMLID_167_">
					<use xlink:href="#XMLID_198_" style="overflow:visible;"></use>
				</clipPath>
				<path id="XMLID_199_" class="st23" d="M242.6,150.9c0,51-41.3,92.3-92.3,92.3s-92.3-41.3-92.3-92.3c0-51,41.3-92.3,92.3-92.3      S242.6,99.9,242.6,150.9"></path>
			</g>
		</g>
	</g>
	<path id="XMLID_196_" class="st4" d="M130.2,65.6c0,9-7.3,16.3-16.3,16.3c-9,0-16.3-7.3-16.3-16.3s7.3-16.3,16.3-16.3   C122.9,49.3,130.2,56.6,130.2,65.6"></path>
	<circle id="XMLID_195_" class="st24" cx="113.9" cy="65.6" r="16.3"></circle>
	<path id="XMLID_194_" class="st4" d="M75.8,162.1c0,9-7.3,16.3-16.3,16.3s-16.3-7.3-16.3-16.3c0-9,7.3-16.3,16.3-16.3   S75.8,153.1,75.8,162.1"></path>
	<circle id="XMLID_193_" class="st24" cx="59.5" cy="162.1" r="16.3"></circle>
	<path id="XMLID_192_" class="st4" d="M238.8,94.8c0,9-7.3,16.3-16.3,16.3c-9,0-16.3-7.3-16.3-16.3s7.3-16.3,16.3-16.3   C231.5,78.5,238.8,85.8,238.8,94.8"></path>
	<circle id="XMLID_191_" class="st24" cx="222.5" cy="94.8" r="16.3"></circle>
	<path id="XMLID_190_" class="st4" d="M108.3,222.2c0,9-7.3,16.3-16.3,16.3s-16.3-7.3-16.3-16.3s7.3-16.3,16.3-16.3   S108.3,213.2,108.3,222.2"></path>
	<circle id="XMLID_189_" class="st24" cx="92.1" cy="222.2" r="16.3"></circle>
	<path id="XMLID_188_" class="st4" d="M141.5,66.2c0,15.5-12.6,28.2-28.2,28.2c-15.6,0-28.2-12.6-28.2-28.2S97.8,38,113.3,38   C128.9,38,141.5,50.6,141.5,66.2"></path>
	<circle id="XMLID_186_" class="st24" cx="113.3" cy="66.2" r="28.2"></circle>
	<path id="XMLID_183_" class="st4" d="M31.1,126.3c-1.2-1.1-1.8-2.5-1.8-4.2c0-1.7,0.6-3.1,1.8-4.2c1.2-1.2,2.6-1.7,4.3-1.7   c1.7,0,3.1,0.6,4.3,1.7c1.2,1.2,1.8,2.6,1.8,4.2c0,1.6-0.6,3-1.8,4.2c-1.2,1.1-2.7,1.7-4.3,1.7C33.7,127.9,32.3,127.4,31.1,126.3"></path>
	<path id="XMLID_182_" class="st5" d="M31.1,126.3c-1.2-1.1-1.8-2.5-1.8-4.2c0-1.7,0.6-3.1,1.8-4.2c1.2-1.2,2.6-1.7,4.3-1.7   c1.7,0,3.1,0.6,4.3,1.7c1.2,1.2,1.8,2.6,1.8,4.2c0,1.6-0.6,3-1.8,4.2c-1.2,1.1-2.7,1.7-4.3,1.7C33.7,127.9,32.3,127.4,31.1,126.3z"></path>
	<rect id="XMLID_181_" x="31" y="137.6" class="st6" width="8.9" height="41.8"></rect>
	<path id="XMLID_216_" class="st6" d="M77.2,131.5v-9.2h3.2l43.1,48.7v9.3h-3.1L77.2,131.5z M77.2,179.4v-41.8l9,10v31.9H77.2z    M114.4,155.1v-31.9h9v41.7L114.4,155.1z"></path>
	<path id="XMLID_213_" class="st6" d="M137.6,179.4v-56.1h36.9v8.1h-27.9v39.9h28.9v8.1H137.6z M150.5,149.7L150.5,149.7   c0-2.1,1.7-3.8,3.8-3.8h13.3v7.6h-13.3C152.2,153.4,150.5,151.7,150.5,149.7"></path>
	<path id="XMLID_209_" class="st6" d="M182,168.2l6.3-4.9c4.1,6,9,8.9,14.7,8.9c0.5,0,0.9,0,1.4-0.1c2.3-0.2,4.4,1.5,4.4,3.8v0.3   c0,2-1.5,3.6-3.5,3.9c-0.7,0.1-1.4,0.1-2.1,0.1c-4.6,0-8.8-1.1-12.5-3.3C187.1,174.9,184.1,171.9,182,168.2 M185.2,137.6   c0-3.1,0.8-5.7,2.5-8c1.7-2.3,3.9-4,6.7-5.1v11.7c0,0.9,0.1,1.6,0.2,2.3c0.2,0.7,0.4,1.3,0.8,1.9c0.4,0.6,0.8,1,1.1,1.4   c0.3,0.4,0.9,0.8,1.6,1.2c0.7,0.4,1.3,0.8,1.8,1c0.5,0.2,1.2,0.6,2.2,1.1l6.3,2.9c4.5,2.1,7.9,4.3,10.1,6.8   c2.2,2.4,3.3,5.5,3.3,9.2c0,3.2-0.8,6.1-2.4,8.4c-1.6,2.4-3.9,4.2-6.7,5.4v-12.4c0-0.9-0.1-1.7-0.2-2.4c-0.2-0.7-0.4-1.4-0.8-2   c-0.4-0.6-0.8-1.1-1.2-1.5c-0.4-0.4-1-0.9-1.7-1.3c-0.7-0.4-1.4-0.8-2-1.1c-0.6-0.3-1.3-0.7-2.3-1.1l-6.2-2.9   c-2-0.9-3.7-1.8-5.2-2.8c-1.5-0.9-2.8-2-4.1-3.3c-1.3-1.2-2.2-2.7-2.9-4.2C185.5,141.2,185.2,139.5,185.2,137.6 M198.3,126.4   L198.3,126.4c0-2.2,1.7-3.9,3.9-4c0.3,0,0.6,0,0.9,0c4,0,7.5,0.9,10.6,2.8c3.1,1.8,5.6,4.3,7.3,7.3l-6.3,4.8   c-3-4.5-6.9-6.8-11.8-6.8c-0.1,0-0.3,0-0.4,0C200.2,130.5,198.3,128.7,198.3,126.4"></path>
	<rect id="XMLID_172_" x="227.8" y="123.3" class="st6" width="46.8" height="8.1"></rect>
	<polygon id="XMLID_171_" class="st6" points="246.6,177.5 246.6,135.2 255.7,135.2 255.7,176.9 253.5,175 249.2,174.8  "></polygon>
	<path id="XMLID_170_" class="st4" d="M256.6,180c0,3-2.5,5.5-5.5,5.5c-3,0-5.5-2.5-5.5-5.5s2.5-5.5,5.5-5.5   C254.2,174.5,256.6,176.9,256.6,180"></path>
	<circle id="XMLID_169_" class="st5" cx="251.1" cy="180" r="5.5"></circle>
</g>
<g id="XMLID_153_">
	<path id="XMLID_151_" class="st13" d="M-810.2,163.3c4.1-4.5,38-40.3,90.4-36.3c59.9,4.5,88.4,56.8,90.1,60"></path>
	<path id="XMLID_150_" class="st13" d="M-791.5,93.6c1.9,1,19.1,10.6,20.9,27.6c1.9,18.1-14.3,38.3-39.6,42.1"></path>
	<path id="XMLID_149_" class="st13" d="M-629.7,115.2c-4.5,9.7-21.6,43.8-61.2,61.1c-59.6,26-115.2-10.2-119.3-13"></path>
	<path id="XMLID_148_" class="st13" d="M-680.9,64c-4.9,13.7-15.1,35.9-36,56.4c-35.9,35.3-79,41.5-93.4,43"></path>
	<g id="XMLID_184_" class="st1">
		<g id="XMLID_185_">
			<defs>
				<rect id="XMLID_145_" x="-811.5" y="55.7" width="188.7" height="188.7"></rect>
			</defs>
			<clipPath id="XMLID_168_">
				<use xlink:href="#XMLID_145_" style="overflow:visible;"></use>
			</clipPath>
			<g id="XMLID_187_" class="st25">
				<defs>
					<rect id="XMLID_146_" x="-810.2" y="56.8" width="187.4" height="187.4"></rect>
				</defs>
				<clipPath id="XMLID_203_">
					<use xlink:href="#XMLID_146_" style="overflow:visible;"></use>
				</clipPath>
				<path id="XMLID_147_" class="st26" d="M-622.9,150.5c0,51.7-41.9,93.7-93.7,93.7s-93.7-41.9-93.7-93.7      c0-51.7,41.9-93.7,93.7-93.7S-622.9,98.8-622.9,150.5"></path>
			</g>
		</g>
	</g>
	<path id="XMLID_144_" class="st4" d="M-663.8,66.8c0,9.1-7.4,16.5-16.5,16.5c-9.1,0-16.5-7.4-16.5-16.5s7.4-16.5,16.5-16.5   C-671.1,50.3-663.8,57.7-663.8,66.8"></path>
	<circle id="XMLID_143_" class="st16" cx="-680.3" cy="66.8" r="16.5"></circle>
	<path id="XMLID_142_" class="st4" d="M-613.3,116.9c0,9.1-7.4,16.5-16.5,16.5c-9.1,0-16.5-7.4-16.5-16.5c0-9.1,7.4-16.5,16.5-16.5   C-620.7,100.4-613.3,107.8-613.3,116.9"></path>
	<circle id="XMLID_141_" class="st16" cx="-629.8" cy="116.9" r="16.5"></circle>
	<path id="XMLID_140_" class="st4" d="M-613.2,185.6c0,9.1-7.4,16.5-16.5,16.5c-9.1,0-16.5-7.4-16.5-16.5s7.4-16.5,16.5-16.5   C-620.6,169.1-613.2,176.5-613.2,185.6"></path>
	<circle id="XMLID_138_" class="st16" cx="-629.7" cy="185.6" r="16.5"></circle>
	<path id="XMLID_135_" class="st4" d="M-774,94.4c0,9.1-7.4,16.5-16.5,16.5c-9.1,0-16.5-7.4-16.5-16.5s7.4-16.5,16.5-16.5   C-781.4,77.9-774,85.3-774,94.4"></path>
	<circle id="XMLID_134_" class="st16" cx="-790.5" cy="94.4" r="16.5"></circle>
	<path id="XMLID_133_" class="st4" d="M-793.7,163.7c0,9.1-7.4,16.5-16.5,16.5c-9.1,0-16.5-7.4-16.5-16.5s7.4-16.5,16.5-16.5   C-801.1,147.2-793.7,154.6-793.7,163.7"></path>
	<circle id="XMLID_132_" class="st16" cx="-810.2" cy="163.7" r="16.5"></circle>
	<path id="XMLID_131_" class="st4" d="M-781.3,163.3c0,15.8-12.8,28.6-28.6,28.6c-15.8,0-28.6-12.8-28.6-28.6s12.8-28.6,28.6-28.6   C-794.1,134.7-781.3,147.5-781.3,163.3"></path>
	<circle id="XMLID_130_" class="st16" cx="-809.9" cy="163.3" r="28.6"></circle>
	<path id="XMLID_129_" class="st4" d="M-833.6,125.6c-1.2-1.1-1.8-2.5-1.8-4.2c0-1.7,0.6-3.1,1.8-4.3c1.2-1.2,2.7-1.8,4.4-1.8   c1.7,0,3.1,0.6,4.4,1.8c1.2,1.2,1.9,2.6,1.9,4.3c0,1.7-0.6,3.1-1.8,4.2c-1.2,1.1-2.7,1.7-4.4,1.7   C-830.9,127.3-832.4,126.7-833.6,125.6"></path>
	<path id="XMLID_128_" class="st5" d="M-833.6,125.6c-1.2-1.1-1.8-2.5-1.8-4.2c0-1.7,0.6-3.1,1.8-4.3c1.2-1.2,2.7-1.8,4.4-1.8   c1.7,0,3.1,0.6,4.4,1.8c1.2,1.2,1.9,2.6,1.9,4.3c0,1.7-0.6,3.1-1.8,4.2c-1.2,1.1-2.7,1.7-4.4,1.7   C-830.9,127.3-832.4,126.7-833.6,125.6z"></path>
	<rect id="XMLID_127_" x="-833.7" y="137.1" class="st6" width="9.1" height="42.4"></rect>
	<path id="XMLID_165_" class="st6" d="M-786.9,130.9v-9.3h3.2l43.7,49.4v9.4h-3.1L-786.9,130.9z M-786.9,179.5V137l9.1,10.1v32.3   H-786.9z M-749.1,154.9v-32.3h9.1v42.3L-749.1,154.9z"></path>
	<path id="XMLID_162_" class="st6" d="M-725.5,179.5v-56.9h37.4v8.2h-28.3v40.5h29.3v8.2H-725.5z M-712.4,149.3L-712.4,149.3   c0-2.1,1.7-3.8,3.8-3.8h13.5v7.7h-13.5C-710.7,153.2-712.4,151.4-712.4,149.3"></path>
	<path id="XMLID_158_" class="st6" d="M-680.5,168.1l6.4-4.9c4.2,6,9.1,9.1,15,9.1c0.5,0,1,0,1.4-0.1c2.4-0.2,4.4,1.5,4.4,3.9v0.3   c0,2-1.5,3.7-3.5,3.9c-0.7,0.1-1.5,0.1-2.2,0.1c-4.7,0-8.9-1.1-12.7-3.3C-675.4,174.9-678.3,171.9-680.5,168.1 M-677.2,137.1   c0-3.1,0.8-5.8,2.5-8.1c1.7-2.3,3.9-4,6.8-5.2v11.9c0,0.9,0.1,1.7,0.2,2.4c0.2,0.7,0.4,1.3,0.8,1.9c0.4,0.6,0.8,1.1,1.1,1.5   c0.3,0.4,0.9,0.8,1.6,1.3c0.7,0.4,1.4,0.8,1.9,1.1c0.5,0.3,1.2,0.6,2.3,1.1l6.4,2.9c4.6,2.1,8,4.4,10.3,6.9   c2.2,2.5,3.3,5.6,3.3,9.3c0,3.3-0.8,6.1-2.5,8.6c-1.7,2.4-3.9,4.3-6.8,5.5v-12.6c0-0.9-0.1-1.8-0.3-2.5c-0.2-0.7-0.4-1.4-0.8-2   c-0.4-0.6-0.8-1.1-1.2-1.6c-0.4-0.4-1-0.9-1.7-1.3c-0.7-0.4-1.4-0.8-2-1.1c-0.6-0.3-1.4-0.7-2.4-1.2l-6.3-2.9   c-2-0.9-3.8-1.9-5.2-2.8c-1.5-1-2.8-2.1-4.1-3.3c-1.3-1.3-2.2-2.7-2.9-4.3C-676.9,140.8-677.2,139-677.2,137.1 M-664,125.7   L-664,125.7c0-2.2,1.8-4,4-4.1c0.3,0,0.6,0,0.9,0c4,0,7.6,0.9,10.8,2.8c3.2,1.9,5.6,4.3,7.4,7.4l-6.4,4.9c-3-4.6-7-6.9-12-6.9   c-0.1,0-0.3,0-0.4,0C-662,129.9-664,128.1-664,125.7"></path>
	<rect id="XMLID_118_" x="-634.1" y="122.5" class="st6" width="47.5" height="8.2"></rect>
	<polygon id="XMLID_117_" class="st6" points="-614.9,177.6 -614.9,134.7 -605.8,134.7 -605.8,176.9 -608,175.1 -612.3,174.9  "></polygon>
	<path id="XMLID_116_" class="st4" d="M-604.8,180.1c0,3.1-2.5,5.6-5.6,5.6c-3.1,0-5.6-2.5-5.6-5.6s2.5-5.6,5.6-5.6   C-607.3,174.5-604.8,177-604.8,180.1"></path>
	<circle id="XMLID_115_" class="st5" cx="-610.3" cy="180.1" r="5.6"></circle>
</g>
<g id="XMLID_99_">
	<path id="XMLID_97_" class="st27" d="M-1508.1,93.8c-14.4-3.1-49.4-8.7-89.6,6.2c-47,17.3-71.4,51.6-79.1,63.4"></path>
	<path id="XMLID_96_" class="st27" d="M-1489.5,138.6c-16,7.2-33.4-1.9-36.8-15c-2.9-11.2,4.4-25.1,18.2-29.8"></path>
	<path id="XMLID_95_" class="st27" d="M-1547,238.1c-29.1-17.4-43.9-51.2-36.9-83.4c7.6-34.8,39.1-60.4,75.8-60.9"></path>
	<path id="XMLID_94_" class="st27" d="M-1658,208.4c-15.9-39.9-4.5-85.5,27.7-112.4c34.4-28.6,85.3-29.9,122.1-2.3"></path>
	<path id="XMLID_93_" class="st27" d="M-1640.6,225.9c2.2-13.7,10.3-52.4,43.6-86.4c34.8-35.4,75.4-43.6,88.9-45.7"></path>
	<path id="XMLID_92_" class="st27" d="M-1525.7,76.2c-3.2,4.4-3.8,10-1.5,14.1c3.2,5.6,11.9,7.9,19.1,3.5"></path>
	<path id="XMLID_91_" class="st27" d="M-1595.4,57.4c-6.9,23.1,4.3,47.7,25.6,57.4c22.3,10.2,49.6,1.1,61.7-21"></path>
	<g id="XMLID_136_" class="st1">
		<g id="XMLID_137_">
			<defs>
				<rect id="XMLID_88_" x="-1678" y="55.6" width="188.5" height="190.7"></rect>
			</defs>
			<clipPath id="XMLID_205_">
				<use xlink:href="#XMLID_88_" style="overflow:visible;"></use>
			</clipPath>
			<g id="XMLID_139_" class="st28">
				<defs>
					<rect id="XMLID_89_" x="-1676.8" y="57.4" width="187.2" height="187.2"></rect>
				</defs>
				<clipPath id="XMLID_206_">
					<use xlink:href="#XMLID_89_" style="overflow:visible;"></use>
				</clipPath>
				<path id="XMLID_90_" class="st29" d="M-1489.5,151c0,51.7-41.9,93.6-93.6,93.6c-51.7,0-93.6-41.9-93.6-93.6      c0-51.7,41.9-93.6,93.6-93.6C-1531.5,57.4-1489.5,99.3-1489.5,151"></path>
			</g>
		</g>
	</g>
	<path id="XMLID_87_" class="st4" d="M-1490.4,93.8c0,9.1-7.4,16.5-16.5,16.5c-9.1,0-16.5-7.4-16.5-16.5c0-9.1,7.4-16.5,16.5-16.5   C-1497.8,77.3-1490.4,84.7-1490.4,93.8"></path>
	<circle id="XMLID_86_" class="st27" cx="-1506.9" cy="93.8" r="16.5"></circle>
	<path id="XMLID_85_" class="st4" d="M-1510.5,77.3c0,9.1-7.4,16.5-16.5,16.5c-9.1,0-16.5-7.4-16.5-16.5c0-9.1,7.4-16.5,16.5-16.5   C-1517.8,60.8-1510.5,68.2-1510.5,77.3"></path>
	<circle id="XMLID_84_" class="st27" cx="-1527" cy="77.3" r="16.5"></circle>
	<path id="XMLID_83_" class="st4" d="M-1576,57.4c0,9.1-7.4,16.5-16.5,16.5c-9.1,0-16.5-7.4-16.5-16.5c0-9.1,7.4-16.5,16.5-16.5   C-1583.3,40.9-1576,48.3-1576,57.4"></path>
	<circle id="XMLID_82_" class="st27" cx="-1592.5" cy="57.4" r="16.5"></circle>
	<path id="XMLID_81_" class="st4" d="M-1660.3,163.4c0,9.1-7.4,16.5-16.5,16.5c-9.1,0-16.5-7.4-16.5-16.5c0-9.1,7.4-16.5,16.5-16.5   C-1667.7,146.9-1660.3,154.3-1660.3,163.4"></path>
	<circle id="XMLID_80_" class="st27" cx="-1676.8" cy="163.4" r="16.5"></circle>
	<path id="XMLID_79_" class="st4" d="M-1643.5,208.4c0,9.1-7.4,16.5-16.5,16.5s-16.5-7.4-16.5-16.5c0-9.1,7.4-16.5,16.5-16.5   S-1643.5,199.3-1643.5,208.4"></path>
	<circle id="XMLID_78_" class="st27" cx="-1659.9" cy="208.4" r="16.5"></circle>
	<path id="XMLID_77_" class="st4" d="M-1624.1,225.9c0,9.1-7.4,16.5-16.5,16.5s-16.5-7.4-16.5-16.5s7.4-16.5,16.5-16.5   S-1624.1,216.8-1624.1,225.9"></path>
	<circle id="XMLID_76_" class="st27" cx="-1640.6" cy="225.9" r="16.5"></circle>
	<path id="XMLID_75_" class="st4" d="M-1527,238.1c0,9.1-7.4,16.5-16.5,16.5c-9.1,0-16.5-7.4-16.5-16.5c0-9.1,7.4-16.5,16.5-16.5   C-1534.3,221.6-1527,229-1527,238.1"></path>
	<circle id="XMLID_74_" class="st27" cx="-1543.5" cy="238.1" r="16.5"></circle>
	<path id="XMLID_73_" class="st4" d="M-1473.1,138.5c0,9.1-7.4,16.5-16.5,16.5c-9.1,0-16.5-7.4-16.5-16.5c0-9.1,7.4-16.5,16.5-16.5   C-1480.4,122-1473.1,129.4-1473.1,138.5"></path>
	<circle id="XMLID_72_" class="st27" cx="-1489.5" cy="138.5" r="16.5"></circle>
	<path id="XMLID_70_" class="st4" d="M-1478.3,93.9c0,15.8-12.8,28.5-28.5,28.5c-15.8,0-28.5-12.8-28.5-28.5   c0-15.8,12.8-28.5,28.5-28.5C-1491.1,65.4-1478.3,78.1-1478.3,93.9"></path>
	<circle id="XMLID_67_" class="st27" cx="-1506.9" cy="93.9" r="28.5"></circle>
	<path id="XMLID_66_" class="st4" d="M-1700.1,124.5c-1.2-1.1-1.8-2.5-1.8-4.2c0-1.7,0.6-3.1,1.8-4.3c1.2-1.2,2.7-1.8,4.4-1.8   c1.7,0,3.1,0.6,4.4,1.8c1.2,1.2,1.9,2.6,1.9,4.3c0,1.7-0.6,3.1-1.8,4.2s-2.7,1.7-4.4,1.7C-1697.5,126.2-1698.9,125.6-1700.1,124.5"></path>
	<path id="XMLID_65_" class="st5" d="M-1700.1,124.5c-1.2-1.1-1.8-2.5-1.8-4.2c0-1.7,0.6-3.1,1.8-4.3c1.2-1.2,2.7-1.8,4.4-1.8   c1.7,0,3.1,0.6,4.4,1.8c1.2,1.2,1.9,2.6,1.9,4.3c0,1.7-0.6,3.1-1.8,4.2c-1.2,1.2-2.7,1.7-4.4,1.7   C-1697.5,126.2-1698.9,125.6-1700.1,124.5z"></path>
	<rect id="XMLID_64_" x="-1700.3" y="136" class="st6" width="9" height="42.3"></rect>
	<path id="XMLID_111_" class="st6" d="M-1653.4,129.8v-9.3h3.2l43.7,49.4v9.4h-3.1L-1653.4,129.8z M-1653.4,178.3v-42.4l9.1,10.1   v32.3H-1653.4z M-1615.7,153.7v-32.3h9.1v42.3L-1615.7,153.7z"></path>
	<path id="XMLID_108_" class="st6" d="M-1592.1,178.3v-56.9h37.4v8.2h-28.3v40.5h29.3v8.2H-1592.1z M-1579,148.2L-1579,148.2   c0-2.1,1.7-3.8,3.8-3.8h13.5v7.7h-13.5C-1577.3,152-1579,150.3-1579,148.2"></path>
	<path id="XMLID_104_" class="st6" d="M-1547.1,166.9l6.4-4.9c4.2,6,9.1,9,14.9,9c0.5,0,1,0,1.4-0.1c2.4-0.2,4.4,1.5,4.4,3.9v0.3   c0,2-1.5,3.7-3.5,3.9c-0.7,0.1-1.5,0.1-2.2,0.1c-4.7,0-8.9-1.1-12.6-3.3C-1542,173.8-1545,170.8-1547.1,166.9 M-1543.9,136   c0-3.1,0.8-5.8,2.5-8.1c1.7-2.3,3.9-4,6.8-5.2v11.9c0,0.9,0.1,1.7,0.2,2.4c0.2,0.7,0.4,1.3,0.8,1.9c0.4,0.6,0.8,1.1,1.1,1.5   c0.3,0.4,0.9,0.8,1.6,1.3c0.7,0.4,1.4,0.8,1.9,1.1c0.5,0.3,1.2,0.6,2.3,1.1l6.4,2.9c4.6,2.1,8,4.4,10.2,6.9   c2.2,2.5,3.3,5.6,3.3,9.3c0,3.3-0.8,6.1-2.5,8.6c-1.7,2.4-3.9,4.3-6.8,5.5v-12.6c0-0.9-0.1-1.8-0.3-2.5c-0.2-0.7-0.4-1.4-0.8-2   c-0.4-0.6-0.8-1.1-1.2-1.6c-0.4-0.4-1-0.9-1.7-1.3c-0.7-0.4-1.4-0.8-2-1.1c-0.6-0.3-1.4-0.7-2.4-1.2l-6.3-2.9   c-2-0.9-3.8-1.9-5.2-2.8c-1.5-1-2.8-2.1-4.1-3.3c-1.3-1.3-2.2-2.7-2.9-4.3C-1543.5,139.6-1543.9,137.9-1543.9,136 M-1530.6,124.6   L-1530.6,124.6c0-2.2,1.8-4,4-4.1c0.3,0,0.6,0,0.9,0c4,0,7.6,0.9,10.8,2.8c3.2,1.9,5.6,4.3,7.4,7.4l-6.4,4.9c-3-4.6-7-6.9-12-6.9   c-0.1,0-0.3,0-0.4,0C-1528.6,128.8-1530.6,126.9-1530.6,124.6"></path>
	<rect id="XMLID_54_" x="-1500.7" y="121.4" class="st6" width="47.5" height="8.2"></rect>
	<polygon id="XMLID_53_" class="st6" points="-1481.6,176.4 -1481.6,133.6 -1472.4,133.6 -1472.4,175.8 -1474.6,173.9 -1479,173.7     "></polygon>
	<path id="XMLID_52_" class="st4" d="M-1471.5,178.9c0,3.1-2.5,5.6-5.6,5.6c-3.1,0-5.6-2.5-5.6-5.6s2.5-5.6,5.6-5.6   C-1473.9,173.3-1471.5,175.8-1471.5,178.9"></path>
	<circle id="XMLID_51_" class="st5" cx="-1477" cy="178.9" r="5.6"></circle>
</g>
<path id="XMLID_35_" class="st30" d="M-2544.8,160.3c9.9,9.7,35.3,32,75.1,39.8c51.1,10.1,91.1-10.5,102-16.6"></path>
<path id="XMLID_34_" class="st30" d="M-2488.6,233.4c-6.2-29.8,7-59.6,31.4-73.4c29-16.3,68.7-7,89.4,23.5"></path>
<path id="XMLID_33_" class="st30" d="M-2417.8,234.9c-5.7-21.6,2.9-42.6,18.7-50.6c13.7-7,28-2,31.3-0.7"></path>
<path id="XMLID_32_" class="st30" d="M-2544.8,136.2c22-30.8,58.6-47.2,94.4-41.8c42.9,6.4,77.6,43,82.7,89.2"></path>
<g id="XMLID_68_" class="st1">
	<g id="XMLID_69_">
		<defs>
			<rect id="XMLID_29_" x="-2546.4" y="55.9" width="185.3" height="187.5"></rect>
		</defs>
		<clipPath id="XMLID_207_">
			<use xlink:href="#XMLID_29_" style="overflow:visible;"></use>
		</clipPath>
		<g id="XMLID_71_" class="st31">
			<defs>
				<rect id="XMLID_30_" x="-2545.2" y="57.7" width="184.1" height="184.1"></rect>
			</defs>
			<clipPath id="XMLID_208_">
				<use xlink:href="#XMLID_30_" style="overflow:visible;"></use>
			</clipPath>
			<path id="XMLID_31_" class="st32" d="M-2361.1,149.7c0,50.8-41.2,92-92,92s-92-41.2-92-92c0-50.8,41.2-92,92-92     S-2361.1,98.9-2361.1,149.7"></path>
		</g>
	</g>
</g>
<path id="XMLID_28_" class="st4" d="M-2528.6,138.4c0,9-7.3,16.2-16.2,16.2c-9,0-16.2-7.3-16.2-16.2c0-9,7.3-16.2,16.2-16.2  C-2535.9,122.2-2528.6,129.5-2528.6,138.4"></path>
<circle id="XMLID_27_" class="st33" cx="-2544.8" cy="138.4" r="16.2"></circle>
<path id="XMLID_26_" class="st4" d="M-2528.9,160.3c0,9-7.3,16.2-16.2,16.2c-9,0-16.2-7.3-16.2-16.2c0-9,7.3-16.2,16.2-16.2  C-2536.2,144.1-2528.9,151.3-2528.9,160.3"></path>
<circle id="XMLID_25_" class="st33" cx="-2545.2" cy="160.3" r="16.2"></circle>
<path id="XMLID_24_" class="st4" d="M-2473.9,234.9c0,9-7.3,16.2-16.2,16.2c-9,0-16.2-7.3-16.2-16.2s7.3-16.2,16.2-16.2  C-2481.1,218.7-2473.9,226-2473.9,234.9"></path>
<circle id="XMLID_23_" class="st33" cx="-2490.1" cy="234.9" r="16.2"></circle>
<path id="XMLID_22_" class="st4" d="M-2403.3,234.9c0,9-7.3,16.2-16.2,16.2c-9,0-16.2-7.3-16.2-16.2s7.3-16.2,16.2-16.2  C-2410.5,218.7-2403.3,226-2403.3,234.9"></path>
<circle id="XMLID_21_" class="st33" cx="-2419.5" cy="234.9" r="16.2"></circle>
<path id="XMLID_20_" class="st4" d="M-2351.6,183.5c0,9-7.3,16.2-16.2,16.2s-16.2-7.3-16.2-16.2c0-9,7.3-16.2,16.2-16.2  S-2351.6,174.6-2351.6,183.5"></path>
<circle id="XMLID_19_" class="st33" cx="-2367.8" cy="183.5" r="16.2"></circle>
<path id="XMLID_18_" class="st4" d="M-2339.7,183.5c0,15.5-12.6,28.1-28.1,28.1c-15.5,0-28.1-12.6-28.1-28.1  c0-15.5,12.6-28.1,28.1-28.1C-2352.3,155.5-2339.7,168-2339.7,183.5"></path>
<circle id="XMLID_17_" class="st33" cx="-2367.8" cy="183.5" r="28.1"></circle>
<path id="XMLID_16_" class="st4" d="M-2568,125.2c-1.2-1.1-1.8-2.5-1.8-4.2c0-1.7,0.6-3.1,1.8-4.2c1.2-1.2,2.6-1.7,4.3-1.7  c1.7,0,3.1,0.6,4.3,1.7c1.2,1.2,1.8,2.6,1.8,4.2c0,1.6-0.6,3-1.8,4.1c-1.2,1.1-2.6,1.7-4.3,1.7  C-2565.4,126.9-2566.8,126.4-2568,125.2"></path>
<path id="XMLID_15_" class="st5" d="M-2568,125.2c-1.2-1.1-1.8-2.5-1.8-4.2s0.6-3.1,1.8-4.2c1.2-1.2,2.6-1.7,4.3-1.7  c1.7,0,3.1,0.6,4.3,1.7c1.2,1.2,1.8,2.6,1.8,4.2c0,1.6-0.6,3-1.8,4.1c-1.2,1.1-2.6,1.7-4.3,1.7  C-2565.4,126.9-2566.8,126.4-2568,125.2z"></path>
<rect id="XMLID_14_" x="-2568.1" y="136.6" class="st6" width="8.9" height="41.6"></rect>
<path id="XMLID_49_" class="st6" d="M-2522.1,130.5v-9.1h3.1l42.9,48.5v9.3h-3.1L-2522.1,130.5z M-2522.1,178.2v-41.7l9,9.9v31.8  H-2522.1z M-2485,154v-31.8h9v41.5L-2485,154z"></path>
<path id="XMLID_46_" class="st6" d="M-2461.8,178.2v-55.9h36.8v8.1h-27.8v39.8h28.8v8.1H-2461.8z M-2449,148.6L-2449,148.6  c0-2.1,1.7-3.8,3.8-3.8h13.3v7.5h-13.3C-2447.3,152.3-2449,150.6-2449,148.6"></path>
<path id="XMLID_36_" class="st6" d="M-2417.6,167l6.3-4.8c4.1,5.9,9,8.9,14.7,8.9c0.5,0,0.9,0,1.4-0.1c2.3-0.2,4.3,1.5,4.3,3.8v0.3  c0,2-1.5,3.6-3.5,3.8c-0.7,0.1-1.4,0.1-2.1,0.1c-4.6,0-8.8-1.1-12.4-3.2C-2412.5,173.7-2415.5,170.8-2417.6,167 M-2414.4,136.6  c0-3.1,0.8-5.7,2.5-8c1.7-2.3,3.9-4,6.7-5.1v11.7c0,0.9,0.1,1.6,0.2,2.3c0.2,0.7,0.4,1.3,0.8,1.9c0.4,0.6,0.8,1,1.1,1.4  c0.3,0.4,0.9,0.8,1.6,1.2c0.7,0.4,1.3,0.8,1.8,1c0.5,0.2,1.2,0.6,2.2,1.1l6.3,2.9c4.5,2.1,7.9,4.3,10.1,6.8c2.2,2.4,3.3,5.5,3.3,9.2  c0,3.2-0.8,6-2.4,8.4c-1.6,2.4-3.9,4.2-6.7,5.4v-12.4c0-0.9-0.1-1.7-0.2-2.4c-0.2-0.7-0.4-1.4-0.8-2c-0.4-0.6-0.8-1.1-1.2-1.5  c-0.4-0.4-1-0.9-1.7-1.3c-0.7-0.4-1.4-0.8-1.9-1.1c-0.6-0.3-1.3-0.7-2.3-1.1l-6.2-2.9c-2-0.9-3.7-1.8-5.2-2.8  c-1.4-0.9-2.8-2-4.1-3.3c-1.3-1.2-2.2-2.6-2.9-4.2C-2414.1,140.2-2414.4,138.4-2414.4,136.6 M-2401.4,125.4L-2401.4,125.4  c0-2.2,1.7-3.9,3.9-4c0.3,0,0.6,0,0.9,0c3.9,0,7.5,0.9,10.6,2.8c3.1,1.8,5.5,4.3,7.3,7.2l-6.3,4.8c-3-4.5-6.9-6.7-11.7-6.7  c-0.1,0-0.3,0-0.4,0C-2399.4,129.5-2401.4,127.7-2401.4,125.4"></path>
<rect id="XMLID_45_" x="-2372" y="122.2" class="st6" width="46.7" height="8.1"></rect>
<polygon id="XMLID_47_" class="st6" points="-2353.2,176.3 -2353.2,134.2 -2344.2,134.2 -2344.2,175.7 -2346.3,173.8 -2350.6,173.6   "></polygon>
<path id="XMLID_48_" class="st4" d="M-2343.2,178.8c0,3-2.4,5.5-5.5,5.5c-3,0-5.5-2.4-5.5-5.5s2.4-5.5,5.5-5.5  C-2345.7,173.3-2343.2,175.8-2343.2,178.8"></path>
<circle id="XMLID_50_" class="st5" cx="-2348.7" cy="178.8" r="5.5"></circle>
<path id="XMLID_751_" class="st34" d="M3532.1,114.8c9.5-0.2,30.9,0.8,47.2,15.4c24.7,22.2,28.5,67.6,3.8,107.8"></path>
<path id="XMLID_750_" class="st34" d="M3712.8,138.5c-15.8,23.8-44.6,59.1-91.5,83.6c-13.4,7-26.3,12.1-38.2,15.9"></path>
<path id="XMLID_749_" class="st34" d="M3655.4,238c-9.7-13.6-25.6-21-41.5-19c-18.9,2.3-29.2,16.7-30.8,19"></path>
<path id="XMLID_748_" class="st34" d="M3544.5,208.3c9.3-12.8,27.3-14.1,37.4-4.8c8.9,8.3,10.1,23.7,1.2,34.5"></path>
<path id="XMLID_747_" class="st35" d="M3631.5,244.5c-0.3-1-5-14.5-18.7-18.1c-10.9-2.9-22.9,1.7-29.7,11.6"></path>
<path id="XMLID_746_" class="st36" d="M3676.7,225.8c-5.2-25.4-29.7-42.1-54.3-37.9c-23.4,3.9-40.7,25.6-39.3,50.1"></path>
<path id="XMLID_745_" class="st36" d="M3607,57.3c13.3,3.4,46.1,13.7,58.5,40.8c17.8,39-10.7,104.3-82.4,139.9"></path>
<path id="XMLID_738_" class="st4" d="M3623.8,57.3c0,9.1-7.4,16.5-16.5,16.5c-9.1,0-16.5-7.4-16.5-16.5c0-9.1,7.4-16.5,16.5-16.5  C3616.4,40.8,3623.8,48.2,3623.8,57.3"></path>
<circle id="XMLID_737_" class="st35" cx="3607.3" cy="57.3" r="16.5"></circle>
<path id="XMLID_736_" class="st4" d="M3730,141c0,9.1-7.4,16.5-16.5,16.5c-9.1,0-16.5-7.4-16.5-16.5c0-9.1,7.4-16.5,16.5-16.5  C3722.6,124.5,3730,131.9,3730,141"></path>
<circle id="XMLID_735_" class="st35" cx="3713.5" cy="141" r="16.5"></circle>
<path id="XMLID_734_" class="st4" d="M3693.2,225.8c0,9.1-7.4,16.5-16.5,16.5c-9.1,0-16.5-7.4-16.5-16.5c0-9.1,7.4-16.5,16.5-16.5  C3685.8,209.3,3693.2,216.7,3693.2,225.8"></path>
<circle id="XMLID_733_" class="st35" cx="3676.7" cy="225.8" r="16.5"></circle>
<path id="XMLID_732_" class="st4" d="M3548.6,117.4c0,9.1-7.4,16.5-16.5,16.5s-16.5-7.4-16.5-16.5c0-9.1,7.4-16.5,16.5-16.5  S3548.6,108.3,3548.6,117.4"></path>
<circle id="XMLID_731_" class="st35" cx="3532.1" cy="117.4" r="16.5"></circle>
<path id="XMLID_730_" class="st4" d="M3560.9,212.6c0,9.1-7.4,16.5-16.5,16.5s-16.5-7.4-16.5-16.5c0-9.1,7.4-16.5,16.5-16.5  S3560.9,203.5,3560.9,212.6"></path>
<circle id="XMLID_729_" class="st35" cx="3544.5" cy="212.6" r="16.5"></circle>
<path id="XMLID_728_" class="st4" d="M3599,238c0,9.1-7.4,16.5-16.5,16.5s-16.5-7.4-16.5-16.5c0-9.1,7.4-16.5,16.5-16.5  S3599,228.9,3599,238"></path>
<circle id="XMLID_727_" class="st35" cx="3582.5" cy="238" r="16.5"></circle>
<path id="XMLID_726_" class="st4" d="M3648,242.3c0,9.1-7.4,16.5-16.5,16.5s-16.5-7.4-16.5-16.5c0-9.1,7.4-16.5,16.5-16.5  S3648,233.2,3648,242.3"></path>
<circle id="XMLID_725_" class="st35" cx="3631.5" cy="242.3" r="16.5"></circle>
<path id="XMLID_724_" class="st4" d="M3671.9,238c0,9.1-7.4,16.5-16.5,16.5c-9.1,0-16.5-7.4-16.5-16.5c0-9.1,7.4-16.5,16.5-16.5  C3664.5,221.5,3671.9,228.9,3671.9,238"></path>
<circle id="XMLID_723_" class="st35" cx="3655.4" cy="238" r="16.5"></circle>
<path id="XMLID_722_" class="st4" d="M3611,238c0,15.8-12.8,28.5-28.5,28.5c-15.8,0-28.5-12.8-28.5-28.5c0-15.8,12.8-28.5,28.5-28.5  C3598.2,209.5,3611,222.3,3611,238"></path>
<circle id="XMLID_721_" class="st35" cx="3582.5" cy="238" r="28.5"></circle>
<path id="XMLID_720_" class="st4" d="M3499.2,122.7c-1.2-1.1-1.8-2.5-1.8-4.2s0.6-3.1,1.8-4.3c1.2-1.2,2.7-1.8,4.4-1.8  c1.7,0,3.1,0.6,4.4,1.8c1.2,1.2,1.9,2.6,1.9,4.3c0,1.7-0.6,3.1-1.8,4.2c-1.2,1.1-2.7,1.7-4.4,1.7  C3501.8,124.4,3500.4,123.8,3499.2,122.7"></path>
<path id="XMLID_719_" class="st5" d="M3499.2,122.7c-1.2-1.1-1.8-2.5-1.8-4.2c0-1.7,0.6-3.1,1.8-4.3c1.2-1.2,2.7-1.8,4.4-1.8  c1.7,0,3.1,0.6,4.4,1.8c1.2,1.2,1.9,2.6,1.9,4.3c0,1.7-0.6,3.1-1.8,4.2c-1.2,1.1-2.7,1.7-4.4,1.7  C3501.8,124.4,3500.4,123.8,3499.2,122.7z"></path>
<rect id="XMLID_718_" x="3499" y="134.2" class="st6" width="9" height="42.3"></rect>
<path id="XMLID_714_" class="st6" d="M3545.9,128v-9.3h3.2l43.7,49.3v9.4h-3.1L3545.9,128z M3545.9,176.5v-42.4l9.1,10.1v32.3  H3545.9z M3583.6,152v-32.3h9.1v42.2L3583.6,152z"></path>
<path id="XMLID_711_" class="st6" d="M3607.1,176.5v-56.9h37.4v8.2h-28.3v40.5h29.3v8.2H3607.1z M3620.2,146.4L3620.2,146.4  c0-2.1,1.7-3.8,3.8-3.8h13.5v7.7H3624C3621.9,150.2,3620.2,148.5,3620.2,146.4"></path>
<path id="XMLID_707_" class="st6" d="M3652.1,165.2l6.4-4.9c4.2,6,9.1,9,14.9,9c0.5,0,1,0,1.4-0.1c2.4-0.2,4.4,1.5,4.4,3.9v0.3  c0,2-1.5,3.7-3.5,3.9c-0.7,0.1-1.5,0.1-2.2,0.1c-4.7,0-8.9-1.1-12.6-3.3C3657.2,172,3654.3,169,3652.1,165.2 M3655.4,134.2  c0-3.1,0.8-5.8,2.5-8.1c1.7-2.3,3.9-4,6.8-5.2v11.9c0,0.9,0.1,1.7,0.2,2.4c0.2,0.7,0.4,1.3,0.8,1.9c0.4,0.6,0.8,1.1,1.1,1.5  c0.3,0.4,0.9,0.8,1.6,1.3c0.7,0.4,1.4,0.8,1.9,1.1c0.5,0.3,1.2,0.6,2.3,1.1l6.4,2.9c4.6,2.1,8,4.4,10.2,6.9c2.2,2.5,3.3,5.6,3.3,9.3  c0,3.3-0.8,6.1-2.5,8.6c-1.7,2.4-3.9,4.3-6.8,5.5v-12.6c0-0.9-0.1-1.8-0.3-2.5c-0.2-0.7-0.4-1.4-0.8-2c-0.4-0.6-0.8-1.1-1.2-1.6  c-0.4-0.4-1-0.9-1.7-1.3c-0.7-0.4-1.4-0.8-2-1.1c-0.6-0.3-1.4-0.7-2.4-1.2l-6.3-2.9c-2-0.9-3.8-1.9-5.2-2.8c-1.5-1-2.8-2.1-4.1-3.3  c-1.3-1.3-2.2-2.7-2.9-4.3C3655.7,137.9,3655.4,136.1,3655.4,134.2 M3668.6,122.9L3668.6,122.9c0-2.2,1.8-4,4-4.1c0.3,0,0.6,0,0.9,0  c4,0,7.6,0.9,10.8,2.8c3.2,1.9,5.6,4.3,7.4,7.4l-6.4,4.9c-3-4.6-7-6.9-11.9-6.9c-0.1,0-0.3,0-0.4,0  C3670.6,127,3668.6,125.2,3668.6,122.9"></path>
<rect id="XMLID_706_" x="3698.5" y="119.7" class="st6" width="47.5" height="8.2"></rect>
<polygon id="XMLID_705_" class="st6" points="3717.6,174.6 3717.6,131.8 3726.8,131.8 3726.8,174 3724.6,172.1 3720.2,171.9 "></polygon>
<path id="XMLID_704_" class="st4" d="M3727.7,177.1c0,3.1-2.5,5.6-5.6,5.6s-5.6-2.5-5.6-5.6c0-3.1,2.5-5.6,5.6-5.6  S3727.7,174.1,3727.7,177.1"></path>
<circle id="XMLID_703_" class="st5" cx="3722.2" cy="177.1" r="5.6"></circle>
</svg>
